<svg xmlns="http://www.w3.org/2000/svg" version="1.1" xmlns:xlink="http://www.w3.org/1999/xlink" xmlns:svgjs="http://svgjs.dev/svgjs" viewBox="0 0 10.340925899313893 11.401822879450085"><g transform="matrix(1,0,0,1,0.9046530131335091,8.54325255862427)"><rect width="10.340925899313893" height="11.401822879450085" x="-0.9046530131335093" y="-8.54325255862427" fill="#ffffff"></rect><g><path d=" M 0.045 0.018000000000000016 L 0.417 1.068 L 0.507 1.068 L 0.7935 0.24750000000000005 L 0.801 0.24750000000000005 L 1.0785 1.068 L 1.167 1.068 L 1.539 0.018000000000000016 L 1.47 0.018000000000000016 L 1.1595 0.894 L 1.1535 0.894 L 0.861 0.018000000000000016 L 0.7965 0.018000000000000016 L 0.498 0.8895000000000001 L 0.492 0.8895000000000001 L 0.183 0.018000000000000016 L 0.045 0.018000000000000016 Z M 1.8389538574218751 0.018000000000000016 L 1.8389538574218751 1.068 L 1.9754538574218752 1.068 L 1.9754538574218752 0.018000000000000016 L 1.8389538574218751 0.018000000000000016 Z M 3.25637841796875 0.018000000000000016 L 3.25637841796875 0.8205 L 3.2503784179687503 0.8205 L 2.4178784179687502 0 L 2.4103784179687504 0 L 2.4103784179687504 1.068 L 2.4793784179687504 1.068 L 2.4793784179687504 0.26550000000000007 L 2.48537841796875 0.26550000000000007 L 3.3178784179687506 1.086 L 3.32537841796875 1.086 L 3.32537841796875 0.018000000000000016 L 3.25637841796875 0.018000000000000016 Z M 3.715341796875 1.068 L 3.715341796875 0.018000000000000016 L 4.060341796875001 0.018000000000000016 Q 4.184841796875 0.018000000000000016 4.288341796875001 0.05774999999999997 Q 4.391841796875 0.09750000000000003 4.466091796875 0.16725 Q 4.540341796875 0.237 4.581591796875 0.3330000000000001 Q 4.622841796875001 0.42900000000000005 4.622841796875001 0.54 Q 4.622841796875001 0.6555 4.580091796875 0.7522500000000001 Q 4.537341796875 0.8490000000000001 4.463091796875 0.9195000000000001 Q 4.388841796875001 0.9900000000000001 4.289841796875001 1.0290000000000001 Q 4.1908417968750005 1.068 4.078341796875001 1.068 L 3.715341796875 1.068 Z M 3.8518417968750005 1.002 L 4.016841796875 1.002 Q 4.139841796875 1.002 4.226091796875 0.9607500000000001 Q 4.312341796875001 0.9195000000000001 4.367841796875 0.8535 Q 4.423341796875 0.7875000000000001 4.4488417968750005 0.7057500000000001 Q 4.4743417968750006 0.6240000000000001 4.4743417968750006 0.543 Q 4.4743417968750006 0.45300000000000007 4.444341796875 0.36975 Q 4.414341796875 0.2865000000000001 4.3565917968750005 0.22275 Q 4.298841796875 0.15900000000000003 4.213341796875 0.12150000000000005 Q 4.127841796875001 0.08400000000000007 4.016841796875 0.08400000000000007 L 3.8518417968750005 0.08400000000000007 L 3.8518417968750005 1.002 Z M 4.757772216796876 0.543 Q 4.757772216796876 0.627 4.790022216796875 0.7222500000000001 Q 4.8222722167968755 0.8175000000000001 4.891272216796875 0.8985000000000001 Q 4.960272216796875 0.9795 5.066772216796876 1.03275 Q 5.173272216796875 1.086 5.321772216796876 1.086 Q 5.422272216796875 1.086 5.5040222167968755 1.06125 Q 5.585772216796876 1.0365 5.651022216796876 0.9945 Q 5.716272216796876 0.9525 5.764272216796876 0.89775 Q 5.812272216796876 0.8430000000000001 5.843022216796875 0.7822500000000001 Q 5.873772216796875 0.7215 5.889522216796875 0.66 Q 5.905272216796876 0.5985 5.905272216796876 0.543 Q 5.905272216796876 0.4590000000000001 5.870772216796875 0.36375 Q 5.836272216796876 0.26850000000000007 5.764272216796876 0.1875 Q 5.692272216796876 0.10650000000000004 5.582022216796876 0.05325000000000002 Q 5.471772216796875 0 5.321772216796876 0 Q 5.173272216796875 0 5.066772216796876 0.05249999999999999 Q 4.960272216796875 0.1050000000000001 4.891272216796875 0.18525000000000003 Q 4.8222722167968755 0.26550000000000007 4.790022216796875 0.36150000000000004 Q 4.757772216796876 0.4575 4.757772216796876 0.543 Z M 4.904772216796876 0.543 Q 4.904772216796876 0.43800000000000006 4.937022216796875 0.35025000000000006 Q 4.969272216796876 0.26250000000000007 5.025522216796875 0.1995 Q 5.0817722167968755 0.13650000000000007 5.158272216796876 0.10125000000000006 Q 5.234772216796875 0.06600000000000006 5.324772216796876 0.06600000000000006 Q 5.413272216796876 0.06600000000000006 5.492022216796876 0.10125000000000006 Q 5.570772216796875 0.13650000000000007 5.630022216796876 0.1995 Q 5.6892722167968754 0.26250000000000007 5.723772216796876 0.35025000000000006 Q 5.758272216796875 0.43800000000000006 5.758272216796875 0.543 Q 5.758272216796875 0.6480000000000001 5.723772216796876 0.7357500000000001 Q 5.6892722167968754 0.8235000000000001 5.630022216796876 0.8865000000000001 Q 5.570772216796875 0.9495 5.492022216796876 0.98475 Q 5.413272216796876 1.02 5.324772216796876 1.02 Q 5.234772216796875 1.02 5.158272216796876 0.98475 Q 5.0817722167968755 0.9495 5.025522216796875 0.8865000000000001 Q 4.969272216796876 0.8235000000000001 4.937022216796875 0.7357500000000001 Q 4.904772216796876 0.6480000000000001 4.904772216796876 0.543 Z M 6.040257568359376 0.018000000000000016 L 6.412257568359376 1.068 L 6.502257568359376 1.068 L 6.788757568359376 0.24750000000000005 L 6.796257568359376 0.24750000000000005 L 7.073757568359376 1.068 L 7.162257568359376 1.068 L 7.534257568359376 0.018000000000000016 L 7.465257568359376 0.018000000000000016 L 7.154757568359376 0.894 L 7.148757568359376 0.894 L 6.856257568359376 0.018000000000000016 L 6.791757568359376 0.018000000000000016 L 6.493257568359376 0.8895000000000001 L 6.487257568359376 0.8895000000000001 L 6.178257568359376 0.018000000000000016 L 6.040257568359376 0.018000000000000016 Z M 7.649711425781252 0.8025 Q 7.652711425781252 0.867 7.6834614257812515 0.9195000000000001 Q 7.714211425781252 0.9720000000000001 7.767461425781252 1.00875 Q 7.820711425781251 1.0455 7.892711425781251 1.06575 Q 7.9647114257812515 1.086 8.050211425781251 1.086 Q 8.137211425781251 1.086 8.206961425781252 1.0650000000000002 Q 8.27671142578125 1.044 8.326211425781251 1.0050000000000001 Q 8.375711425781251 0.9660000000000001 8.402711425781252 0.9105000000000001 Q 8.429711425781251 0.8550000000000001 8.429711425781251 0.7875000000000001 Q 8.429711425781251 0.6945000000000001 8.383211425781251 0.6352500000000001 Q 8.336711425781251 0.5760000000000001 8.266961425781252 0.53625 Q 8.197211425781251 0.49650000000000005 8.115461425781252 0.46950000000000003 Q 8.033711425781252 0.4425 7.963961425781251 0.4125000000000001 Q 7.8942114257812515 0.38250000000000006 7.8477114257812515 0.3435 Q 7.8012114257812515 0.3045 7.8012114257812515 0.24 Q 7.8012114257812515 0.20400000000000007 7.816961425781251 0.1725 Q 7.832711425781252 0.14100000000000001 7.863461425781251 0.11775000000000002 Q 7.8942114257812515 0.09450000000000003 7.939211425781251 0.08025000000000004 Q 7.984211425781251 0.06600000000000006 8.04271142578125 0.06600000000000006 Q 8.140211425781251 0.06600000000000006 8.208461425781252 0.10725000000000007 Q 8.27671142578125 0.14850000000000008 8.288711425781251 0.237 L 8.390711425781252 0.237 Q 8.381711425781251 0.1815 8.350211425781252 0.1372500000000001 Q 8.318711425781252 0.09300000000000008 8.270711425781252 0.06225000000000014 Q 8.222711425781252 0.031500000000000083 8.161961425781252 0.01574999999999993 Q 8.101211425781251 0 8.035211425781252 0 Q 7.9662114257812515 0 7.903961425781252 0.018000000000000016 Q 7.841711425781251 0.03600000000000003 7.794461425781251 0.07050000000000001 Q 7.747211425781251 0.1050000000000001 7.719461425781252 0.15750000000000008 Q 7.691711425781252 0.21000000000000008 7.691711425781252 0.2775000000000001 Q 7.691711425781252 0.366 7.736711425781252 0.42000000000000004 Q 7.781711425781252 0.4740000000000001 7.849961425781252 0.51 Q 7.9182114257812515 0.546 7.997711425781252 0.5715000000000001 Q 8.077211425781252 0.597 8.145461425781251 0.6292500000000001 Q 8.213711425781252 0.6615 8.258711425781252 0.7080000000000001 Q 8.303711425781252 0.7545000000000001 8.303711425781252 0.8325 Q 8.303711425781252 0.93 8.232461425781251 0.9750000000000001 Q 8.161211425781252 1.02 8.04271142578125 1.02 Q 7.948211425781252 1.02 7.891211425781251 0.9952500000000001 Q 7.834211425781252 0.9705 7.804211425781252 0.936 Q 7.774211425781251 0.9015000000000001 7.763711425781252 0.86475 Q 7.753211425781251 0.8280000000000001 7.751711425781251 0.8025 L 7.649711425781252 0.8025 Z" fill="#000000" fill-rule="nonzero"></path></g><g><path d=" M 3.258019831730769 1.5466096153846154 L 3.258019831730769 1.5800711538461538 L 3.1460967548076924 1.5800711538461538 L 3.1460967548076924 1.949878846153846 L 3.105712139423077 1.949878846153846 L 3.105712139423077 1.5800711538461538 L 2.993212139423077 1.5800711538461538 L 2.993212139423077 1.5466096153846154 L 3.258019831730769 1.5466096153846154 Z M 3.4074189640925483 1.9276673076923077 Q 3.3618420410156253 1.9014173076923075 3.3355920410156252 1.8543980769230768 Q 3.309342041015625 1.807378846153846 3.309342041015625 1.7479557692307692 Q 3.309342041015625 1.6885326923076922 3.3355920410156252 1.6415134615384614 Q 3.3618420410156253 1.5944942307692307 3.4074189640925483 1.5682442307692308 Q 3.4529958871694713 1.5419942307692307 3.5089574256310097 1.5419942307692307 Q 3.5654958871694715 1.5419942307692307 3.6110728102463945 1.5682442307692308 Q 3.6566497333233174 1.5944942307692307 3.682611271784856 1.6415134615384614 Q 3.7085728102463946 1.6885326923076922 3.7085728102463946 1.7479557692307692 Q 3.7085728102463946 1.807378846153846 3.682611271784856 1.8543980769230768 Q 3.6566497333233174 1.9014173076923075 3.6110728102463945 1.9276673076923077 Q 3.5654958871694715 1.9539173076923075 3.5089574256310097 1.9539173076923075 Q 3.4529958871694713 1.9539173076923075 3.4074189640925483 1.9276673076923077 Z M 3.5897266564002406 1.8979557692307691 Q 3.625495887169471 1.8771865384615385 3.646265117938702 1.8382442307692306 Q 3.667034348707933 1.799301923076923 3.667034348707933 1.7479557692307692 Q 3.667034348707933 1.6966096153846153 3.646265117938702 1.6579557692307691 Q 3.625495887169471 1.619301923076923 3.5897266564002406 1.5985326923076921 Q 3.5539574256310096 1.5777634615384615 3.5089574256310097 1.5777634615384615 Q 3.4639574256310097 1.5777634615384615 3.428188194861779 1.5985326923076921 Q 3.392418964092548 1.619301923076923 3.3716497333233173 1.6579557692307691 Q 3.350880502554087 1.6966096153846153 3.350880502554087 1.7479557692307692 Q 3.350880502554087 1.799301923076923 3.3716497333233173 1.8382442307692306 Q 3.392418964092548 1.8771865384615385 3.428188194861779 1.8979557692307691 Q 3.4639574256310097 1.918725 3.5089574256310097 1.918725 Q 3.5539574256310096 1.918725 3.5897266564002406 1.8979557692307691 Z M 3.8677827336237987 1.9276673076923077 Q 3.8222058105468757 1.9014173076923075 3.7959558105468756 1.8543980769230768 Q 3.7697058105468755 1.807378846153846 3.7697058105468755 1.7479557692307692 Q 3.7697058105468755 1.6885326923076922 3.7959558105468756 1.6415134615384614 Q 3.8222058105468757 1.5944942307692307 3.8677827336237987 1.5682442307692308 Q 3.9133596567007216 1.5419942307692307 3.96932119516226 1.5419942307692307 Q 4.025859656700722 1.5419942307692307 4.071436579777645 1.5682442307692308 Q 4.117013502854568 1.5944942307692307 4.142975041316106 1.6415134615384614 Q 4.168936579777645 1.6885326923076922 4.168936579777645 1.7479557692307692 Q 4.168936579777645 1.807378846153846 4.142975041316106 1.8543980769230768 Q 4.117013502854568 1.9014173076923075 4.071436579777645 1.9276673076923077 Q 4.025859656700722 1.9539173076923075 3.96932119516226 1.9539173076923075 Q 3.9133596567007216 1.9539173076923075 3.8677827336237987 1.9276673076923077 Z M 4.050090425931491 1.8979557692307691 Q 4.0858596567007215 1.8771865384615385 4.106628887469952 1.8382442307692306 Q 4.127398118239183 1.799301923076923 4.127398118239183 1.7479557692307692 Q 4.127398118239183 1.6966096153846153 4.106628887469952 1.6579557692307691 Q 4.0858596567007215 1.619301923076923 4.050090425931491 1.5985326923076921 Q 4.01432119516226 1.5777634615384615 3.96932119516226 1.5777634615384615 Q 3.92432119516226 1.5777634615384615 3.8885519643930295 1.5985326923076921 Q 3.8527827336237985 1.619301923076923 3.8320135028545677 1.6579557692307691 Q 3.8112442720853372 1.6966096153846153 3.8112442720853372 1.7479557692307692 Q 3.8112442720853372 1.799301923076923 3.8320135028545677 1.8382442307692306 Q 3.8527827336237985 1.8771865384615385 3.8885519643930295 1.8979557692307691 Q 3.92432119516226 1.918725 3.96932119516226 1.918725 Q 4.01432119516226 1.918725 4.050090425931491 1.8979557692307691 Z M 4.28891573392428 1.9169942307692307 L 4.433723426231972 1.9169942307692307 L 4.433723426231972 1.949878846153846 L 4.248531118539664 1.949878846153846 L 4.248531118539664 1.5466096153846154 L 4.28891573392428 1.5466096153846154 L 4.28891573392428 1.9169942307692307 Z M 4.7331231219951935 1.5466096153846154 L 4.7331231219951935 1.5800711538461538 L 4.621200045072116 1.5800711538461538 L 4.621200045072116 1.949878846153846 L 4.580815429687501 1.949878846153846 L 4.580815429687501 1.5800711538461538 L 4.468315429687501 1.5800711538461538 L 4.468315429687501 1.5466096153846154 L 4.7331231219951935 1.5466096153846154 Z M 4.843291485126203 1.5466096153846154 L 4.843291485126203 1.949878846153846 L 4.802906869741587 1.949878846153846 L 4.802906869741587 1.5466096153846154 L 4.843291485126203 1.5466096153846154 Z M 5.164604679987981 1.746225 Q 5.13056621844952 1.7779557692307693 5.062489295372597 1.7779557692307693 L 4.981143141526443 1.7779557692307693 L 4.981143141526443 1.949878846153846 L 4.940758526141828 1.949878846153846 L 4.940758526141828 1.5466096153846154 L 5.062489295372597 1.5466096153846154 Q 5.129989295372597 1.5466096153846154 5.16431621844952 1.5783403846153845 Q 5.198643141526444 1.6100711538461536 5.198643141526444 1.6625711538461538 Q 5.198643141526444 1.7144942307692306 5.164604679987981 1.746225 Z M 5.157104679987982 1.6625711538461538 Q 5.157104679987982 1.6221865384615384 5.134604679987982 1.6014173076923077 Q 5.112104679987982 1.5806480769230769 5.062489295372597 1.5806480769230769 L 4.981143141526443 1.5806480769230769 L 4.981143141526443 1.7433403846153845 L 5.062489295372597 1.7433403846153845 Q 5.157104679987982 1.7433403846153845 5.157104679987982 1.6625711538461538 Z M 5.324103628305289 1.9400711538461537 Q 5.293815166766827 1.9262249999999999 5.276507474459136 1.9014173076923075 Q 5.259199782151443 1.8766096153846152 5.258045935997597 1.8460326923076922 L 5.300738243689905 1.8460326923076922 Q 5.30362285907452 1.8754557692307692 5.326699782151443 1.8976673076923076 Q 5.349776705228366 1.919878846153846 5.394199782151443 1.919878846153846 Q 5.435161320612981 1.919878846153846 5.459103628305289 1.8988211538461537 Q 5.4830459359975965 1.8777634615384615 5.4830459359975965 1.8454557692307691 Q 5.4830459359975965 1.8194942307692308 5.469776705228366 1.803628846153846 Q 5.456507474459135 1.7877634615384614 5.4368920898437505 1.7799749999999999 Q 5.417276705228366 1.7721865384615385 5.382661320612981 1.7629557692307691 Q 5.342276705228366 1.7519942307692307 5.3186228590745195 1.7416096153846152 Q 5.2949690129206735 1.731225 5.278238243689905 1.709301923076923 Q 5.261507474459135 1.6873788461538461 5.261507474459135 1.649878846153846 Q 5.261507474459135 1.618725 5.277661320612982 1.5942057692307692 Q 5.293815166766827 1.5696865384615384 5.323238243689905 1.5558403846153845 Q 5.352661320612982 1.5419942307692307 5.3907382436899045 1.5419942307692307 Q 5.446699782151443 1.5419942307692307 5.481026705228366 1.5693980769230769 Q 5.515353628305289 1.596801923076923 5.520545935997597 1.6400711538461539 L 5.476699782151443 1.6400711538461539 Q 5.472661320612981 1.6152634615384613 5.449584397536058 1.5959365384615385 Q 5.426507474459135 1.5766096153846152 5.387276705228366 1.5766096153846152 Q 5.350930551382212 1.5766096153846152 5.326699782151443 1.5959365384615385 Q 5.302469012920674 1.6152634615384613 5.302469012920674 1.648725 Q 5.302469012920674 1.6741096153846153 5.315738243689904 1.6896865384615385 Q 5.329007474459135 1.7052634615384614 5.348911320612982 1.7133403846153845 Q 5.368815166766828 1.7214173076923076 5.402853628305289 1.7306480769230768 Q 5.442084397536059 1.7416096153846152 5.466315166766828 1.7522826923076922 Q 5.490545935997597 1.7629557692307691 5.507276705228366 1.784878846153846 Q 5.524007474459135 1.806801923076923 5.524007474459135 1.8437249999999998 Q 5.524007474459135 1.8719942307692308 5.5090074744591355 1.897378846153846 Q 5.494007474459135 1.9227634615384614 5.464584397536059 1.9383403846153846 Q 5.435161320612981 1.9539173076923075 5.394199782151443 1.9539173076923075 Q 5.354392089843751 1.9539173076923075 5.324103628305289 1.9400711538461537 Z" fill="#00a2e8" fill-rule="nonzero"></path></g><g clip-path="url(&quot;#SvgjsClipPath1023&quot;)"><path d=" M 4.265809936523437 -7.63859954549076 L 0.5715101637780573 -0.25 L 7.960109709268817 -0.25 Z M 4.265809936523437 -7.026665175991008 L 1.0142983793971108 -0.5236420617383528 L 7.517321493649764 -0.5236420617383528 Z" fill="#00a2e8" transform="matrix(1,0,0,1,0,0)" fill-rule="evenodd"></path><path d=" M 4.265809936523437 -2.3839858758708488 L 1.4752942153246953 -0.5236420617383528 L 7.05632565772218 -0.5236420617383528 Z M 4.265809936523437 -2.7128445252839866 L 0.5715101637780573 -0.25 L 7.960109709268817 -0.25 Z" fill="#00a2e8" transform="matrix(1,0,0,1,0,0)" fill-rule="evenodd"></path><path d=" M 4.128988905654261 -7.091051543458856 L 4.402630967392614 -7.091051543458856 L 4.402630967392614 -2.439202463545633 L 4.128988905654261 -2.439202463545633 Z" fill="#00a2e8" transform="matrix(1,0,0,1,0,0)" fill-rule="nonzero"></path></g></g><defs><clipPath id="SvgjsClipPath1023"><path d=" M 0.5715101637780573 -7.63859954549076 h 7.38859954549076 v 7.38859954549076 h -7.38859954549076 Z"></path></clipPath></defs></svg>