<?xml version="1.0" encoding="UTF-8" standalone="no"?>
<!-- Created with Inkscape (http://www.inkscape.org/) -->

<svg
   width="210mm"
   height="297mm"
   viewBox="0 0 210 297"
   version="1.1"
   id="svg5"
   xml:space="preserve"
   inkscape:version="1.2.1 (9c6d41e410, 2022-07-14)"
   sodipodi:docname="powerButton.svg"
   inkscape:export-filename="powerButton.png"
   inkscape:export-xdpi="14.135653"
   inkscape:export-ydpi="14.135653"
   xmlns:inkscape="http://www.inkscape.org/namespaces/inkscape"
   xmlns:sodipodi="http://sodipodi.sourceforge.net/DTD/sodipodi-0.dtd"
   xmlns="http://www.w3.org/2000/svg"
   xmlns:svg="http://www.w3.org/2000/svg"><sodipodi:namedview
     id="namedview7"
     pagecolor="#505050"
     bordercolor="#ffffff"
     borderopacity="1"
     inkscape:showpageshadow="0"
     inkscape:pageopacity="0"
     inkscape:pagecheckerboard="1"
     inkscape:deskcolor="#505050"
     inkscape:document-units="mm"
     showgrid="false"
     showguides="true"
     inkscape:lockguides="false"
     inkscape:zoom="1"
     inkscape:cx="116.5"
     inkscape:cy="621.5"
     inkscape:window-width="2560"
     inkscape:window-height="1361"
     inkscape:window-x="2391"
     inkscape:window-y="41"
     inkscape:window-maximized="1"
     inkscape:current-layer="layer4" /><defs
     id="defs2"><inkscape:path-effect
       effect="offset"
       id="path-effect1408"
       is_visible="true"
       lpeversion="1.2"
       linejoin_type="miter"
       unit="mm"
       offset="0"
       miter_limit="4"
       attempt_force_join="false"
       update_on_knot_move="true" /><inkscape:path-effect
       effect="offset"
       id="path-effect1401"
       is_visible="true"
       lpeversion="1.2"
       linejoin_type="miter"
       unit="mm"
       offset="0.7"
       miter_limit="4"
       attempt_force_join="false"
       update_on_knot_move="true" /><inkscape:path-effect
       effect="fillet_chamfer"
       id="path-effect1399"
       is_visible="true"
       lpeversion="1"
       nodesatellites_param="F,0,0,1,0,1.3229167,0,1 @ F,0,0,1,0,1.3229167,0,1 @ F,0,0,1,0,1.3229167,0,1 @ F,0,0,1,0,1.3229167,0,1"
       unit="px"
       method="auto"
       mode="F"
       radius="5"
       chamfer_steps="1"
       flexible="false"
       use_knot_distance="true"
       apply_no_radius="true"
       apply_with_radius="true"
       only_selected="false"
       hide_knots="false" /><inkscape:path-effect
       effect="fillet_chamfer"
       id="path-effect1397"
       is_visible="true"
       lpeversion="1"
       nodesatellites_param="F,0,0,1,0,1.3229167,0,1 @ F,0,0,1,0,1.3229167,0,1 @ F,0,0,1,0,1.3229167,0,1 @ F,0,0,1,0,1.3229167,0,1"
       unit="px"
       method="auto"
       mode="F"
       radius="5"
       chamfer_steps="1"
       flexible="false"
       use_knot_distance="true"
       apply_no_radius="true"
       apply_with_radius="true"
       only_selected="false"
       hide_knots="false" /><inkscape:path-effect
       effect="fillet_chamfer"
       id="path-effect1395"
       is_visible="true"
       lpeversion="1"
       nodesatellites_param="F,0,0,1,0,1.3229167,0,1 @ F,0,0,1,0,1.3229167,0,1 @ F,0,0,1,0,1.3229167,0,1 @ F,0,0,1,0,1.3229167,0,1"
       unit="px"
       method="auto"
       mode="F"
       radius="5"
       chamfer_steps="1"
       flexible="false"
       use_knot_distance="true"
       apply_no_radius="true"
       apply_with_radius="true"
       only_selected="false"
       hide_knots="false" /><inkscape:path-effect
       effect="fillet_chamfer"
       id="path-effect1393"
       is_visible="true"
       lpeversion="1"
       nodesatellites_param="F,0,0,1,0,1.3229167,0,1 @ F,0,0,1,0,1.3229167,0,1 @ F,0,0,1,0,1.3229167,0,1 @ F,0,0,1,0,1.3229167,0,1"
       unit="px"
       method="auto"
       mode="F"
       radius="5"
       chamfer_steps="1"
       flexible="false"
       use_knot_distance="true"
       apply_no_radius="true"
       apply_with_radius="true"
       only_selected="false"
       hide_knots="false" /><inkscape:path-effect
       effect="fillet_chamfer"
       id="path-effect1391"
       is_visible="true"
       lpeversion="1"
       nodesatellites_param="F,0,0,1,0,1.3229167,0,1 @ F,0,0,1,0,1.3229167,0,1 @ F,0,0,1,0,1.3229167,0,1 @ F,0,0,1,0,1.3229167,0,1"
       unit="px"
       method="auto"
       mode="F"
       radius="5"
       chamfer_steps="1"
       flexible="false"
       use_knot_distance="true"
       apply_no_radius="true"
       apply_with_radius="true"
       only_selected="false"
       hide_knots="false" /><inkscape:path-effect
       effect="fillet_chamfer"
       id="path-effect1389"
       is_visible="true"
       lpeversion="1"
       nodesatellites_param="F,0,0,1,0,1.3229167,0,1 @ F,0,0,1,0,1.3229167,0,1 @ F,0,0,1,0,1.3229167,0,1 @ F,0,0,1,0,1.3229167,0,1"
       unit="px"
       method="auto"
       mode="F"
       radius="5"
       chamfer_steps="1"
       flexible="false"
       use_knot_distance="true"
       apply_no_radius="true"
       apply_with_radius="true"
       only_selected="false"
       hide_knots="false" /><inkscape:path-effect
       effect="fillet_chamfer"
       id="path-effect1387"
       is_visible="true"
       lpeversion="1"
       nodesatellites_param="F,0,0,1,0,1.3229167,0,1 @ F,0,0,1,0,1.3229167,0,1 @ F,0,0,1,0,1.3229167,0,1 @ F,0,0,1,0,1.3229167,0,1"
       unit="px"
       method="auto"
       mode="F"
       radius="5"
       chamfer_steps="1"
       flexible="false"
       use_knot_distance="true"
       apply_no_radius="true"
       apply_with_radius="true"
       only_selected="false"
       hide_knots="false" /><inkscape:path-effect
       effect="fillet_chamfer"
       id="path-effect1385"
       is_visible="true"
       lpeversion="1"
       nodesatellites_param="F,0,0,1,0,1.3229167,0,1 @ F,0,0,1,0,1.3229167,0,1 @ F,0,0,1,0,1.3229167,0,1 @ F,0,0,1,0,1.3229167,0,1"
       unit="px"
       method="auto"
       mode="F"
       radius="5"
       chamfer_steps="1"
       flexible="false"
       use_knot_distance="true"
       apply_no_radius="true"
       apply_with_radius="true"
       only_selected="false"
       hide_knots="false" /><inkscape:path-effect
       effect="fillet_chamfer"
       id="path-effect1383"
       is_visible="true"
       lpeversion="1"
       nodesatellites_param="F,0,0,1,0,1.3229167,0,1 @ F,0,0,1,0,1.3229167,0,1 @ F,0,0,1,0,1.3229167,0,1 @ F,0,0,1,0,1.3229167,0,1"
       unit="px"
       method="auto"
       mode="F"
       radius="5"
       chamfer_steps="1"
       flexible="false"
       use_knot_distance="true"
       apply_no_radius="true"
       apply_with_radius="true"
       only_selected="false"
       hide_knots="false" /><inkscape:path-effect
       effect="fillet_chamfer"
       id="path-effect1381"
       is_visible="true"
       lpeversion="1"
       nodesatellites_param="F,0,0,1,0,1.3229167,0,1 @ F,0,0,1,0,1.3229167,0,1 @ F,0,0,1,0,1.3229167,0,1 @ F,0,0,1,0,1.3229167,0,1"
       unit="px"
       method="auto"
       mode="F"
       radius="5"
       chamfer_steps="1"
       flexible="false"
       use_knot_distance="true"
       apply_no_radius="true"
       apply_with_radius="true"
       only_selected="false"
       hide_knots="false" /><inkscape:path-effect
       effect="fillet_chamfer"
       id="path-effect1379"
       is_visible="true"
       lpeversion="1"
       nodesatellites_param="F,0,0,1,0,1.3229167,0,1 @ F,0,0,1,0,1.3229167,0,1 @ F,0,0,1,0,1.3229167,0,1 @ F,0,0,1,0,1.3229167,0,1"
       unit="px"
       method="auto"
       mode="F"
       radius="5"
       chamfer_steps="1"
       flexible="false"
       use_knot_distance="true"
       apply_no_radius="true"
       apply_with_radius="true"
       only_selected="false"
       hide_knots="false" /><inkscape:path-effect
       effect="fillet_chamfer"
       id="path-effect1377"
       is_visible="true"
       lpeversion="1"
       nodesatellites_param="F,0,0,1,0,1.3229167,0,1 @ F,0,0,1,0,1.3229167,0,1 @ F,0,0,1,0,1.3229167,0,1 @ F,0,0,1,0,1.3229167,0,1"
       unit="px"
       method="auto"
       mode="F"
       radius="5"
       chamfer_steps="1"
       flexible="false"
       use_knot_distance="true"
       apply_no_radius="true"
       apply_with_radius="true"
       only_selected="false"
       hide_knots="false" /><inkscape:path-effect
       effect="fillet_chamfer"
       id="path-effect1375"
       is_visible="true"
       lpeversion="1"
       nodesatellites_param="F,0,0,1,0,1.3229167,0,1 @ F,0,0,1,0,1.3229167,0,1 @ F,0,0,1,0,1.3229167,0,1 @ F,0,0,1,0,1.3229167,0,1"
       unit="px"
       method="auto"
       mode="F"
       radius="5"
       chamfer_steps="1"
       flexible="false"
       use_knot_distance="true"
       apply_no_radius="true"
       apply_with_radius="true"
       only_selected="false"
       hide_knots="false" /><inkscape:path-effect
       effect="fillet_chamfer"
       id="path-effect1373"
       is_visible="true"
       lpeversion="1"
       nodesatellites_param="F,0,0,1,0,1.3229167,0,1 @ F,0,0,1,0,1.3229167,0,1 @ F,0,0,1,0,1.3229167,0,1 @ F,0,0,1,0,1.3229167,0,1"
       unit="px"
       method="auto"
       mode="F"
       radius="5"
       chamfer_steps="1"
       flexible="false"
       use_knot_distance="true"
       apply_no_radius="true"
       apply_with_radius="true"
       only_selected="false"
       hide_knots="false" /><inkscape:path-effect
       effect="fillet_chamfer"
       id="path-effect1135"
       is_visible="true"
       lpeversion="1"
       nodesatellites_param="F,0,0,1,0,2.6458333,0,1 @ F,0,0,1,0,2.6458333,0,1 @ F,0,0,1,0,2.6458333,0,1 @ F,0,0,1,0,2.6458333,0,1"
       unit="px"
       method="auto"
       mode="F"
       radius="10"
       chamfer_steps="1"
       flexible="false"
       use_knot_distance="true"
       apply_no_radius="true"
       apply_with_radius="true"
       only_selected="false"
       hide_knots="false" /><inkscape:path-effect
       effect="offset"
       id="path-effect1131"
       is_visible="true"
       lpeversion="1.2"
       linejoin_type="miter"
       unit="mm"
       offset="3.9"
       miter_limit="4"
       attempt_force_join="false"
       update_on_knot_move="true" /><inkscape:path-effect
       effect="fillet_chamfer"
       id="path-effect1125"
       is_visible="true"
       lpeversion="1"
       nodesatellites_param="F,0,0,1,0,2.6458333,0,1 @ F,0,0,1,0,2.6458333,0,1 @ F,0,0,1,0,2.6458333,0,1 @ F,0,0,1,0,2.6458333,0,1"
       unit="px"
       method="auto"
       mode="F"
       radius="10"
       chamfer_steps="1"
       flexible="false"
       use_knot_distance="true"
       apply_no_radius="true"
       apply_with_radius="true"
       only_selected="false"
       hide_knots="false" /><inkscape:path-effect
       effect="offset"
       id="path-effect1123"
       is_visible="true"
       lpeversion="1.2"
       linejoin_type="miter"
       unit="mm"
       offset="1.5"
       miter_limit="4"
       attempt_force_join="false"
       update_on_knot_move="true" /><inkscape:path-effect
       effect="offset"
       id="path-effect1089"
       is_visible="true"
       lpeversion="1.2"
       linejoin_type="miter"
       unit="mm"
       offset="1"
       miter_limit="4"
       attempt_force_join="false"
       update_on_knot_move="true" /><inkscape:path-effect
       effect="fillet_chamfer"
       id="path-effect1087"
       is_visible="true"
       lpeversion="1"
       nodesatellites_param="F,0,0,1,0,2.1166667,0,1 @ F,0,0,1,0,2.1166667,0,1 @ F,0,0,1,0,2.1166667,0,1 @ F,0,0,1,0,2.1166667,0,1"
       unit="px"
       method="auto"
       mode="F"
       radius="8"
       chamfer_steps="1"
       flexible="false"
       use_knot_distance="true"
       apply_no_radius="true"
       apply_with_radius="true"
       only_selected="false"
       hide_knots="false" /><inkscape:path-effect
       effect="fillet_chamfer"
       id="path-effect1085"
       is_visible="true"
       lpeversion="1"
       nodesatellites_param="F,0,1,1,0,2.5486471,0,1 @ F,0,0,1,0,0,0,1 @ F,0,0,1,0,0,0,1 @ F,0,0,1,0,0,0,1 @ F,0,1,1,0,2.5486471,0,1 @ F,0,0,1,0,2.5486471,0,1 @ F,0,0,1,0,0,0,1 @ F,0,0,1,0,0,0,1 @ F,0,0,1,0,0,0,1 @ F,0,0,1,0,0,0,1 @ F,0,0,1,0,0,0,1 @ F,0,0,1,0,0,0,1 @ F,0,0,1,0,0,0,1 @ F,0,0,1,0,0,0,1 @ F,0,0,1,0,0,0,1 @ F,0,0,1,0,0,0,1 @ F,0,0,1,0,0,0,1 @ F,0,0,1,0,0,0,1 @ F,0,0,1,0,0,0,1 @ F,0,0,1,0,0,0,1 @ F,0,0,1,0,0,0,1 @ F,0,0,1,0,0,0,1 @ F,0,0,1,0,0,0,1 @ F,0,0,1,0,0,0,1 @ F,0,0,1,0,0,0,1 @ F,0,0,1,0,0,0,1 @ F,0,0,1,0,0,0,1 @ F,0,0,1,0,0,0,1 @ F,0,0,1,0,0,0,1 @ F,0,0,1,0,0,0,1 @ F,0,0,1,0,0,0,1 @ F,0,0,1,0,0,0,1 @ F,0,0,1,0,0,0,1 @ F,0,0,1,0,0,0,1 @ F,0,0,1,0,0,0,1 @ F,0,0,1,0,0,0,1 @ F,0,0,1,0,0,0,1 @ F,0,0,1,0,0,0,1 @ F,0,0,1,0,0,0,1 @ F,0,0,1,0,0,0,1 @ F,0,0,1,0,0,0,1 @ F,0,0,1,0,0,0,1 @ F,0,0,1,0,0,0,1 @ F,0,0,1,0,0,0,1 @ F,0,0,1,0,0,0,1 @ F,0,0,1,0,0,0,1 @ F,0,0,1,0,0,0,1 @ F,0,0,1,0,0,0,1 @ F,0,0,1,0,0,0,1 @ F,0,0,1,0,0,0,1 @ F,0,0,1,0,0,0,1 @ F,0,0,1,0,0,0,1 @ F,0,0,1,0,0,0,1 @ F,0,0,1,0,0,0,1 @ F,0,0,1,0,0,0,1 @ F,0,0,1,0,0,0,1 @ F,0,0,1,0,0,0,1 @ F,0,0,1,0,0,0,1 @ F,0,0,1,0,0,0,1 @ F,0,0,1,0,0,0,1 @ F,0,0,1,0,0,0,1 @ F,0,0,1,0,0,0,1 @ F,0,0,1,0,0,0,1 @ F,0,0,1,0,0,0,1 @ F,0,0,1,0,0,0,1 @ F,0,0,1,0,0,0,1 @ F,0,0,1,0,0,0,1 @ F,0,0,1,0,0,0,1 @ F,0,0,1,0,0,0,1 @ F,0,0,1,0,0,0,1 @ F,0,0,1,0,0,0,1 @ F,0,0,1,0,0,0,1 @ F,0,0,1,0,0,0,1 @ F,0,0,1,0,0,0,1 @ F,0,0,1,0,0,0,1 @ F,0,0,1,0,0,0,1 @ F,0,0,1,0,0,0,1 @ F,0,0,1,0,0,0,1 @ F,0,0,1,0,0,0,1 @ F,0,0,1,0,0,0,1 @ F,0,0,1,0,0,0,1 @ F,0,0,1,0,0,0,1 @ F,0,0,1,0,0,0,1 @ F,0,0,1,0,0,0,1 @ F,0,0,1,0,0,0,1 @ F,0,0,1,0,0,0,1 @ F,0,0,1,0,0,0,1 @ F,0,0,1,0,0,0,1 @ F,0,0,1,0,0,0,1 @ F,0,0,1,0,0,0,1 @ F,0,0,1,0,0,0,1 @ F,0,0,1,0,0,0,1 @ F,0,0,1,0,0,0,1 @ F,0,0,1,0,0,0,1 @ F,0,0,1,0,0,0,1 @ F,0,0,1,0,0,0,1 @ F,0,0,1,0,0,0,1 @ F,0,0,1,0,0,0,1 @ F,0,0,1,0,0,0,1 @ F,0,0,1,0,0,0,1 @ F,0,0,1,0,0,0,1 @ F,0,0,1,0,0,0,1 @ F,0,0,1,0,0,0,1 @ F,0,0,1,0,0,0,1 @ F,0,0,1,0,0,0,1 @ F,0,0,1,0,0,0,1 @ F,0,0,1,0,0,0,1 @ F,0,0,1,0,0,0,1 @ F,0,0,1,0,0,0,1 @ F,0,0,1,0,0,0,1 @ F,0,0,1,0,0,0,1 @ F,0,0,1,0,0,0,1 @ F,0,0,1,0,0,0,1 @ F,0,0,1,0,0,0,1 @ F,0,0,1,0,0,0,1 @ F,0,0,1,0,0,0,1 @ F,0,0,1,0,0,0,1 @ F,0,0,1,0,0,0,1 @ F,0,0,1,0,0,0,1 @ F,0,0,1,0,0,0,1 @ F,0,0,1,0,0,0,1 @ F,0,0,1,0,0,0,1 @ F,0,0,1,0,0,0,1 @ F,0,0,1,0,0,0,1 @ F,0,0,1,0,0,0,1 @ F,0,0,1,0,0,0,1 @ F,0,0,1,0,0,0,1 @ F,0,0,1,0,0,0,1 @ F,0,0,1,0,0,0,1 @ F,0,0,1,0,0,0,1 @ F,0,0,1,0,0,0,1 @ F,0,0,1,0,0,0,1 @ F,0,0,1,0,0,0,1 @ F,0,0,1,0,0,0,1 @ F,0,0,1,0,0,0,1 @ F,0,0,1,0,0,0,1 @ F,0,0,1,0,0,0,1 @ F,0,0,1,0,0,0,1 @ F,0,0,1,0,0,0,1 @ F,0,0,1,0,0,0,1 @ F,0,0,1,0,0,0,1 @ F,0,0,1,0,0,0,1 @ F,0,0,1,0,0,0,1 @ F,0,0,1,0,0,0,1 @ F,0,0,1,0,0,0,1 @ F,0,0,1,0,0,0,1 @ F,0,0,1,0,0,0,1 @ F,0,0,1,0,0,0,1 @ F,0,0,1,0,0,0,1 @ F,0,0,1,0,0,0,1 @ F,0,0,1,0,0,0,1 @ F,0,0,1,0,0,0,1 @ F,0,0,1,0,0,0,1 @ F,0,0,1,0,0,0,1 @ F,0,0,1,0,0,0,1 @ F,0,0,1,0,0,0,1 @ F,0,0,1,0,0,0,1 @ F,0,0,1,0,0,0,1 @ F,0,0,1,0,0,0,1 @ F,0,0,1,0,0,0,1 @ F,0,0,1,0,0,0,1 @ F,0,0,1,0,0,0,1 @ F,0,0,1,0,0,0,1 @ F,0,0,1,0,0,0,1 @ F,0,0,1,0,0,0,1 @ F,0,0,1,0,0,0,1 @ F,0,0,1,0,0,0,1 @ F,0,0,1,0,0,0,1 @ F,0,0,1,0,0,0,1 @ F,0,0,1,0,0,0,1 @ F,0,0,1,0,0,0,1 @ F,0,0,1,0,0,0,1 @ F,0,0,1,0,0,0,1 @ F,0,0,1,0,0,0,1 @ F,0,0,1,0,0,0,1 @ F,0,0,1,0,0,0,1 @ F,0,0,1,0,0,0,1 @ F,0,0,1,0,0,0,1 @ F,0,0,1,0,0,0,1 @ F,0,0,1,0,0,0,1 @ F,0,0,1,0,0,0,1 @ F,0,0,1,0,0,0,1 @ F,0,0,1,0,0,0,1 @ F,0,0,1,0,0,0,1 @ F,0,0,1,0,0,0,1 @ F,0,0,1,0,0,0,1 @ F,0,0,1,0,0,0,1 @ F,0,0,1,0,0,0,1 @ F,0,0,1,0,0,0,1 @ F,0,0,1,0,0,0,1 @ F,0,0,1,0,0,0,1 @ F,0,0,1,0,0,0,1 @ F,0,0,1,0,0,0,1 @ F,0,0,1,0,0,0,1 @ F,0,0,1,0,0,0,1 @ F,0,0,1,0,0,0,1 @ F,0,0,1,0,0,0,1 @ F,0,0,1,0,0,0,1 @ F,0,0,1,0,0,0,1 @ F,0,0,1,0,0,0,1 @ F,0,0,1,0,0,0,1 @ F,0,0,1,0,0,0,1 @ F,0,0,1,0,0,0,1 @ F,0,0,1,0,0,0,1 @ F,0,0,1,0,0,0,1 @ F,0,0,1,0,0,0,1 @ F,0,0,1,0,0,0,1 @ F,0,0,1,0,0,0,1 @ F,0,0,1,0,0,0,1 @ F,0,0,1,0,0,0,1 @ F,0,0,1,0,0,0,1 @ F,0,0,1,0,0,0,1 @ F,0,0,1,0,0,0,1 @ F,0,0,1,0,0,0,1 @ F,0,0,1,0,0,0,1 @ F,0,0,1,0,0,0,1 @ F,0,0,1,0,0,0,1 @ F,0,1,1,0,2.5486471,0,1"
       unit="px"
       method="auto"
       mode="F"
       radius="0"
       chamfer_steps="1"
       flexible="false"
       use_knot_distance="true"
       apply_no_radius="true"
       apply_with_radius="true"
       only_selected="false"
       hide_knots="false" /><inkscape:path-effect
       effect="fillet_chamfer"
       id="path-effect1083"
       nodesatellites_param="F,0,1,1,0,2.294566,0,1 @ F,0,0,1,0,0,0,1 @ F,0,0,1,0,0,0,1 @ F,0,0,1,0,0,0,1 @ F,0,0,1,0,2.294566,0,1 @ F,0,0,1,0,0,0,1 @ F,0,0,1,0,0,0,1 @ F,0,0,1,0,0,0,1 @ F,0,0,1,0,0,0,1 @ F,0,0,1,0,0,0,1 @ F,0,0,1,0,0,0,1 @ F,0,0,1,0,0,0,1 @ F,0,0,1,0,0,0,1 @ F,0,0,1,0,0,0,1 @ F,0,0,1,0,0,0,1 @ F,0,0,1,0,0,0,1 @ F,0,0,1,0,0,0,1 @ F,0,0,1,0,0,0,1 @ F,0,0,1,0,0,0,1 @ F,0,0,1,0,0,0,1 @ F,0,0,1,0,0,0,1 @ F,0,0,1,0,0,0,1 @ F,0,0,1,0,0,0,1 @ F,0,0,1,0,0,0,1 @ F,0,0,1,0,0,0,1 @ F,0,0,1,0,0,0,1 @ F,0,0,1,0,0,0,1 @ F,0,0,1,0,0,0,1 @ F,0,0,1,0,0,0,1 @ F,0,0,1,0,0,0,1 @ F,0,0,1,0,0,0,1 @ F,0,0,1,0,0,0,1 @ F,0,0,1,0,0,0,1 @ F,0,0,1,0,0,0,1 @ F,0,0,1,0,0,0,1 @ F,0,0,1,0,0,0,1 @ F,0,0,1,0,0,0,1 @ F,0,0,1,0,0,0,1 @ F,0,0,1,0,0,0,1 @ F,0,0,1,0,0,0,1 @ F,0,0,1,0,0,0,1 @ F,0,0,1,0,0,0,1 @ F,0,0,1,0,0,0,1 @ F,0,0,1,0,0,0,1 @ F,0,0,1,0,0,0,1 @ F,0,0,1,0,0,0,1 @ F,0,0,1,0,0,0,1 @ F,0,0,1,0,0,0,1 @ F,0,0,1,0,0,0,1 @ F,0,0,1,0,0,0,1 @ F,0,0,1,0,0,0,1 @ F,0,0,1,0,0,0,1 @ F,0,0,1,0,0,0,1 @ F,0,0,1,0,0,0,1 @ F,0,0,1,0,0,0,1 @ F,0,0,1,0,0,0,1 @ F,0,0,1,0,0,0,1 @ F,0,0,1,0,0,0,1 @ F,0,0,1,0,0,0,1 @ F,0,0,1,0,0,0,1 @ F,0,0,1,0,0,0,1 @ F,0,0,1,0,0,0,1 @ F,0,0,1,0,0,0,1 @ F,0,0,1,0,0,0,1 @ F,0,0,1,0,0,0,1 @ F,0,0,1,0,0,0,1 @ F,0,0,1,0,0,0,1 @ F,0,0,1,0,0,0,1 @ F,0,0,1,0,0,0,1 @ F,0,0,1,0,0,0,1 @ F,0,0,1,0,0,0,1 @ F,0,0,1,0,0,0,1 @ F,0,0,1,0,0,0,1 @ F,0,0,1,0,0,0,1 @ F,0,0,1,0,0,0,1 @ F,0,0,1,0,0,0,1 @ F,0,0,1,0,0,0,1 @ F,0,0,1,0,0,0,1 @ F,0,0,1,0,0,0,1 @ F,0,0,1,0,0,0,1 @ F,0,0,1,0,0,0,1 @ F,0,0,1,0,0,0,1 @ F,0,0,1,0,0,0,1 @ F,0,0,1,0,0,0,1 @ F,0,0,1,0,0,0,1 @ F,0,0,1,0,0,0,1 @ F,0,0,1,0,0,0,1 @ F,0,0,1,0,0,0,1 @ F,0,0,1,0,0,0,1 @ F,0,0,1,0,0,0,1 @ F,0,0,1,0,0,0,1 @ F,0,0,1,0,0,0,1 @ F,0,0,1,0,0,0,1 @ F,0,0,1,0,0,0,1 @ F,0,0,1,0,0,0,1 @ F,0,0,1,0,0,0,1 @ F,0,0,1,0,0,0,1 @ F,0,0,1,0,0,0,1 @ F,0,0,1,0,0,0,1 @ F,0,0,1,0,0,0,1 @ F,0,0,1,0,0,0,1 @ F,0,0,1,0,0,0,1 @ F,0,0,1,0,0,0,1 @ F,0,0,1,0,0,0,1 @ F,0,0,1,0,0,0,1 @ F,0,0,1,0,0,0,1 @ F,0,0,1,0,0,0,1 @ F,0,0,1,0,0,0,1 @ F,0,0,1,0,0,0,1 @ F,0,0,1,0,0,0,1 @ F,0,0,1,0,0,0,1 @ F,0,0,1,0,0,0,1 @ F,0,0,1,0,0,0,1 @ F,0,0,1,0,0,0,1 @ F,0,0,1,0,0,0,1 @ F,0,0,1,0,0,0,1 @ F,0,0,1,0,0,0,1 @ F,0,0,1,0,0,0,1 @ F,0,0,1,0,0,0,1 @ F,0,0,1,0,0,0,1 @ F,0,0,1,0,0,0,1 @ F,0,0,1,0,0,0,1 @ F,0,0,1,0,0,0,1 @ F,0,0,1,0,0,0,1 @ F,0,0,1,0,0,0,1 @ F,0,0,1,0,0,0,1 @ F,0,0,1,0,0,0,1 @ F,0,0,1,0,0,0,1 @ F,0,0,1,0,0,0,1 @ F,0,0,1,0,0,0,1 @ F,0,0,1,0,0,0,1 @ F,0,0,1,0,0,0,1 @ F,0,0,1,0,0,0,1 @ F,0,0,1,0,0,0,1 @ F,0,0,1,0,0,0,1 @ F,0,0,1,0,0,0,1 @ F,0,0,1,0,0,0,1 @ F,0,0,1,0,0,0,1 @ F,0,0,1,0,0,0,1 @ F,0,0,1,0,0,0,1 @ F,0,0,1,0,0,0,1 @ F,0,0,1,0,0,0,1 @ F,0,0,1,0,0,0,1 @ F,0,0,1,0,0,0,1 @ F,0,0,1,0,0,0,1 @ F,0,0,1,0,0,0,1 @ F,0,0,1,0,0,0,1 @ F,0,0,1,0,0,0,1 @ F,0,0,1,0,0,0,1 @ F,0,0,1,0,0,0,1 @ F,0,0,1,0,0,0,1 @ F,0,0,1,0,0,0,1 @ F,0,0,1,0,0,0,1 @ F,0,0,1,0,0,0,1 @ F,0,0,1,0,0,0,1 @ F,0,0,1,0,0,0,1 @ F,0,0,1,0,0,0,1 @ F,0,0,1,0,0,0,1 @ F,0,0,1,0,0,0,1 @ F,0,0,1,0,0,0,1 @ F,0,0,1,0,0,0,1 @ F,0,0,1,0,0,0,1 @ F,0,0,1,0,0,0,1 @ F,0,0,1,0,0,0,1 @ F,0,0,1,0,0,0,1 @ F,0,0,1,0,0,0,1 @ F,0,0,1,0,0,0,1 @ F,0,0,1,0,0,0,1 @ F,0,0,1,0,0,0,1 @ F,0,0,1,0,0,0,1 @ F,0,0,1,0,0,0,1 @ F,0,0,1,0,0,0,1 @ F,0,0,1,0,0,0,1 @ F,0,0,1,0,0,0,1 @ F,0,0,1,0,0,0,1 @ F,0,0,1,0,0,0,1 @ F,0,0,1,0,0,0,1 @ F,0,0,1,0,0,0,1 @ F,0,0,1,0,0,0,1 @ F,0,0,1,0,0,0,1 @ F,0,0,1,0,0,0,1 @ F,0,0,1,0,0,0,1 @ F,0,0,1,0,0,0,1 @ F,0,0,1,0,0,0,1 @ F,0,0,1,0,0,0,1 @ F,0,0,1,0,0,0,1 @ F,0,0,1,0,0,0,1 @ F,0,0,1,0,0,0,1 @ F,0,0,1,0,0,0,1 @ F,0,0,1,0,0,0,1 @ F,0,0,1,0,0,0,1 @ F,0,0,1,0,0,0,1 @ F,0,0,1,0,0,0,1 @ F,0,0,1,0,0,0,1 @ F,0,0,1,0,0,0,1 @ F,0,0,1,0,0,0,1 @ F,0,0,1,0,0,0,1 @ F,0,0,1,0,0,0,1 @ F,0,0,1,0,0,0,1 @ F,0,0,1,0,0,0,1 @ F,0,0,1,0,0,0,1 @ F,0,0,1,0,0,0,1 @ F,0,0,1,0,0,0,1 @ F,0,0,1,0,0,0,1 @ F,0,0,1,0,0,0,1 @ F,0,0,1,0,0,0,1 @ F,0,0,1,0,0,0,1 @ F,0,0,1,0,0,0,1 @ F,0,0,1,0,0,0,1 @ F,0,0,1,0,0,0,1 @ F,0,0,1,0,0,0,1 @ F,0,0,1,0,0,0,1 @ F,0,0,1,0,0,0,1 @ F,0,0,1,0,0,0,1 @ F,0,0,1,0,0,0,1 @ F,0,0,1,0,0,0,1 @ F,0,0,1,0,0,0,1 @ F,0,0,1,0,0,0,1 @ F,0,0,1,0,0,0,1 @ F,0,0,1,0,0,0,1 @ F,0,0,1,0,0,0,1 @ F,0,0,1,0,0,0,1 @ F,0,0,1,0,0,0,1 @ F,0,0,1,0,0,0,1"
       is_visible="true"
       lpeversion="1"
       unit="px"
       method="auto"
       mode="F"
       radius="0"
       chamfer_steps="1"
       flexible="false"
       use_knot_distance="true"
       apply_no_radius="true"
       apply_with_radius="true"
       only_selected="false"
       hide_knots="false" /><inkscape:path-effect
       effect="offset"
       id="path-effect1077"
       is_visible="true"
       lpeversion="1.2"
       linejoin_type="miter"
       unit="mm"
       offset="7.016203"
       miter_limit="4"
       attempt_force_join="false"
       update_on_knot_move="true" /><inkscape:path-effect
       effect="offset"
       id="path-effect558"
       is_visible="true"
       lpeversion="1.2"
       linejoin_type="miter"
       unit="mm"
       offset="-7"
       miter_limit="4"
       attempt_force_join="false"
       update_on_knot_move="true" /><inkscape:path-effect
       effect="offset"
       id="path-effect301"
       is_visible="true"
       lpeversion="1.2"
       linejoin_type="miter"
       unit="mm"
       offset="-0.4"
       miter_limit="4"
       attempt_force_join="false"
       update_on_knot_move="true" /><inkscape:path-effect
       effect="offset"
       id="path-effect299"
       is_visible="true"
       lpeversion="1.2"
       linejoin_type="miter"
       unit="mm"
       offset="-0.5"
       miter_limit="4"
       attempt_force_join="false"
       update_on_knot_move="true" /><inkscape:path-effect
       effect="offset"
       id="path-effect297"
       is_visible="true"
       lpeversion="1.2"
       linejoin_type="miter"
       unit="mm"
       offset="-0.5"
       miter_limit="4"
       attempt_force_join="false"
       update_on_knot_move="true" /><inkscape:path-effect
       effect="fillet_chamfer"
       id="path-effect280"
       is_visible="true"
       lpeversion="1"
       nodesatellites_param="F,0,0,1,0,1.8520833,0,1 @ F,0,0,1,0,1.8520833,0,1 @ F,0,0,1,0,1.8520833,0,1"
       unit="px"
       method="auto"
       mode="F"
       radius="7"
       chamfer_steps="1"
       flexible="false"
       use_knot_distance="true"
       apply_no_radius="true"
       apply_with_radius="true"
       only_selected="false"
       hide_knots="false" /><inkscape:path-effect
       effect="fillet_chamfer"
       id="path-effect278"
       is_visible="true"
       lpeversion="1"
       nodesatellites_param="F,0,0,1,0,1.8520833,0,1 @ F,0,0,1,0,1.8520833,0,1 @ F,0,0,1,0,1.8520833,0,1"
       unit="px"
       method="auto"
       mode="F"
       radius="7"
       chamfer_steps="1"
       flexible="false"
       use_knot_distance="true"
       apply_no_radius="true"
       apply_with_radius="true"
       only_selected="false"
       hide_knots="false" /><inkscape:path-effect
       effect="fillet_chamfer"
       id="path-effect276"
       is_visible="true"
       lpeversion="1"
       nodesatellites_param="F,0,0,1,0,1.9574929,0,1 @ F,0,1,1,0,1.9574929,0,1 @ F,0,0,1,0,0,0,1 @ F,0,0,1,0,0,0,1 @ F,0,0,1,0,0,0,1 @ F,0,0,1,0,0,0,1"
       unit="px"
       method="auto"
       mode="F"
       radius="0"
       chamfer_steps="1"
       flexible="false"
       use_knot_distance="true"
       apply_no_radius="true"
       apply_with_radius="true"
       only_selected="false"
       hide_knots="false" /><inkscape:path-effect
       effect="offset"
       id="path-effect558-8"
       is_visible="true"
       lpeversion="1.2"
       linejoin_type="miter"
       unit="mm"
       offset="-15"
       miter_limit="4"
       attempt_force_join="false"
       update_on_knot_move="true" /></defs><g
     inkscape:label="backgroundCircle"
     inkscape:groupmode="layer"
     id="layer1"><circle
       style="fill:#00a2e8;fill-opacity:1;stroke-width:0.268181"
       id="path212"
       cx="105"
       cy="148.5"
       r="57.5"
       inkscape:label="outerCircle" /><circle
       style="fill:#ffffff;stroke-width:0.264583"
       id="path212-7"
       cx="105"
       cy="148.5"
       inkscape:label="innerCircle"
       r="53" /></g><g
     inkscape:groupmode="layer"
     id="layer4"
     inkscape:label="powerSymbol"
     style="display:inline"><g
       id="g1446"
       transform="matrix(0.92635872,0,0,0.92635872,7.7323335,12.077818)"><path
         id="path1018"
         style="fill:#00a2e8;fill-opacity:1;stroke-width:0.264583"
         d="m 86.291016,105.64062 c -0.456922,-0.0183 -0.948911,0.0824 -1.449219,0.32032 -15.907687,7.56578 -26.921875,23.78788 -26.921875,42.53906 0,25.97324 21.106837,47.08008 47.080078,47.08008 25.97326,0 47.08008,-21.10684 47.08008,-47.08008 0,-18.75111 -11.01416,-34.97322 -26.92188,-42.53906 -2.00123,-0.95182 -3.87304,0.3062 -3.87304,2.49218 v 3.72071 c 0,1.79766 1.24539,3.81625 2.74609,4.7207 0.27994,0.16872 0.55475,0.34155 0.83203,0.51953 0.25158,0.16163 0.50006,0.32503 0.74414,0.49024 0.24686,0.16709 0.49009,0.33463 0.73047,0.50586 0.23938,0.17052 0.47873,0.34562 0.71875,0.52539 0.23896,0.17895 0.47378,0.35902 0.70508,0.54101 0.23411,0.18419 0.4644,0.36912 0.6914,0.55664 0.22849,0.18874 0.45443,0.38065 0.67774,0.57422 0.22123,0.19177 0.4401,0.38796 0.66211,0.58985 0.2177,0.19794 0.43499,0.40004 0.65039,0.60546 0.21701,0.20695 0.42773,0.4121 0.63476,0.61915 0.21121,0.21119 0.41858,0.42045 0.6211,0.63281 0.20199,0.2118 0.40097,0.42958 0.60351,0.65234 0.20187,0.222 0.39808,0.44088 0.58985,0.66211 0.19357,0.22331 0.38546,0.44922 0.57422,0.67774 0.18662,0.22592 0.37039,0.45663 0.55664,0.69335 0.18352,0.23326 0.36381,0.46653 0.54101,0.70313 0.17975,0.24001 0.3549,0.4794 0.52539,0.71875 0.17124,0.24041 0.33877,0.48361 0.50586,0.73047 0.16653,0.24602 0.32999,0.49278 0.49024,0.74219 0.1593,0.24794 0.31672,0.50176 0.47265,0.75781 0.15577,0.25573 0.30751,0.50967 0.45508,0.76562 0.14893,0.25832 0.29536,0.51644 0.4375,0.77735 0.14134,0.25943 0.27841,0.52511 0.41602,0.79297 0.13752,0.26764 0.27133,0.53384 0.40039,0.80078 0.12911,0.26703 0.25631,0.53606 0.38086,0.81054 0.12524,0.27601 0.24533,0.54909 0.36133,0.82227 0.11697,0.2755 0.23113,0.55255 0.34179,0.83203 0.10979,0.27727 0.21569,0.55925 0.32032,0.84375 0.10406,0.28297 0.2059,0.5667 0.30273,0.85156 0.0969,0.28521 0.18905,0.57259 0.2793,0.86133 0.0903,0.28899 0.17858,0.57795 0.26171,0.86914 0.0833,0.29154 0.16218,0.58274 0.23829,0.87696 0.0763,0.29496 0.14993,0.59222 0.21875,0.88867 0.0686,0.29566 0.13332,0.59333 0.19531,0.89453 0.0619,0.3009 0.11971,0.60316 0.17383,0.9043 0.0543,0.30228 0.1055,0.60551 0.15234,0.91015 0.0468,0.30425 0.0896,0.61042 0.12891,0.91797 0.0392,0.30714 0.0738,0.61428 0.10547,0.92383 0.0317,0.30956 0.0601,0.62029 0.084,0.93164 0.024,0.31356 0.0446,0.62557 0.0606,0.9375 0.016,0.31331 0.0271,0.63028 0.0351,0.94531 0.008,0.31532 0.0117,0.63069 0.0117,0.94922 0,0.31954 -0.004,0.63415 -0.0117,0.94922 -0.008,0.31471 -0.0191,0.63133 -0.0351,0.94531 -0.016,0.31193 -0.0365,0.62394 -0.0606,0.9375 -0.0239,0.31135 -0.0523,0.62208 -0.084,0.93164 -0.0317,0.30972 -0.0662,0.61719 -0.10547,0.92383 -0.0395,0.30803 -0.0822,0.6139 -0.12891,0.91797 -0.0468,0.30466 -0.098,0.60781 -0.15234,0.91015 -0.0541,0.30112 -0.11188,0.60334 -0.17383,0.9043 -0.062,0.30116 -0.12668,0.59884 -0.19531,0.89453 -0.0688,0.2964 -0.14245,0.59368 -0.21875,0.88867 -0.0761,0.29414 -0.15506,0.58542 -0.23829,0.87696 -0.0832,0.29131 -0.17142,0.58025 -0.26171,0.86914 -0.0902,0.28874 -0.18231,0.57606 -0.2793,0.86133 -0.0968,0.28485 -0.19867,0.56857 -0.30273,0.85156 -0.10463,0.2845 -0.21053,0.56648 -0.32032,0.84375 -0.11066,0.27947 -0.22483,0.55655 -0.34179,0.83203 -0.116,0.27319 -0.23609,0.54625 -0.36133,0.82227 -0.12454,0.27447 -0.25175,0.54349 -0.38086,0.81054 -0.12905,0.26691 -0.26285,0.53308 -0.40039,0.80078 -0.13759,0.26781 -0.27469,0.53356 -0.41602,0.79297 -0.14215,0.26093 -0.28858,0.51904 -0.4375,0.77735 -0.14758,0.25597 -0.29929,0.5118 -0.45508,0.76758 -0.15591,0.256 -0.31335,0.50791 -0.47265,0.75585 -0.16025,0.24941 -0.32372,0.49617 -0.49024,0.74219 -0.16711,0.24687 -0.33465,0.49012 -0.50586,0.73047 -0.17051,0.23937 -0.34565,0.47874 -0.52539,0.71875 -0.1772,0.23661 -0.35747,0.46985 -0.54101,0.70313 -0.18625,0.23672 -0.37001,0.46743 -0.55664,0.69335 -0.18875,0.2285 -0.38065,0.45443 -0.57422,0.67774 -0.19177,0.22123 -0.38798,0.44011 -0.58985,0.66211 -0.20254,0.22275 -0.40154,0.44055 -0.60351,0.65234 -0.20252,0.21236 -0.40986,0.42159 -0.6211,0.63281 -0.20698,0.207 -0.41771,0.41215 -0.63476,0.61915 -0.21536,0.20538 -0.43267,0.4075 -0.65039,0.60546 -0.22202,0.20189 -0.44089,0.3981 -0.66211,0.58985 -0.22331,0.19357 -0.44922,0.38546 -0.67774,0.57422 -0.22698,0.1875 -0.45727,0.37243 -0.6914,0.55664 -0.2313,0.18198 -0.46607,0.36203 -0.70508,0.54101 -0.23998,0.17974 -0.47939,0.35489 -0.71875,0.52539 -0.24041,0.17124 -0.48363,0.33878 -0.73047,0.50586 -0.2441,0.16522 -0.49256,0.32861 -0.74414,0.49024 -0.25193,0.16185 -0.50197,0.31921 -0.7539,0.47265 -0.25367,0.1545 -0.50972,0.30642 -0.76758,0.45508 -0.25834,0.14894 -0.51642,0.29535 -0.77735,0.4375 -0.25941,0.14133 -0.52511,0.27839 -0.79297,0.41602 -0.26764,0.13752 -0.53384,0.27133 -0.80078,0.40039 -0.267,0.12909 -0.53608,0.25631 -0.81054,0.38086 -0.27603,0.12524 -0.54912,0.24534 -0.82227,0.36133 -0.27242,0.11566 -0.5484,0.22755 -0.83203,0.33984 -0.28113,0.11132 -0.56317,0.21908 -0.84375,0.32227 -0.28293,0.10404 -0.56668,0.20587 -0.85156,0.30273 -0.28523,0.0969 -0.5726,0.18906 -0.86133,0.2793 -0.28902,0.0903 -0.57796,0.17859 -0.86914,0.26171 -0.29051,0.083 -0.58348,0.16187 -0.87891,0.23829 -0.29607,0.0766 -0.59126,0.15016 -0.88672,0.21875 -0.29563,0.0686 -0.59333,0.13331 -0.89453,0.19531 -0.30091,0.0619 -0.60318,0.11971 -0.9043,0.17383 -0.30227,0.0543 -0.60552,0.10549 -0.91015,0.15234 -0.30409,0.0467 -0.61,0.0894 -0.91797,0.12891 -0.3067,0.0393 -0.61405,0.0738 -0.92383,0.10547 -0.30956,0.0317 -0.6203,0.0601 -0.93164,0.084 -0.30948,0.0237 -0.6212,0.0424 -0.9375,0.0586 -0.3179,0.0162 -0.63384,0.0291 -0.94531,0.0371 -0.31532,0.008 -0.63069,0.0117 -0.94922,0.0117 -0.31828,0 -0.63381,-0.004 -0.94922,-0.0117 -0.31122,-0.008 -0.62678,-0.0208 -0.94531,-0.0371 -0.3163,-0.0162 -0.62803,-0.0349 -0.9375,-0.0586 -0.31134,-0.0239 -0.62208,-0.0523 -0.93164,-0.084 -0.30972,-0.0317 -0.61719,-0.0662 -0.92383,-0.10547 -0.30798,-0.0395 -0.614211,-0.0822 -0.917969,-0.12891 -0.305102,-0.047 -0.608031,-0.098 -0.910156,-0.15234 -0.301113,-0.0541 -0.60333,-0.11189 -0.904297,-0.17383 -0.301182,-0.062 -0.598852,-0.12667 -0.894531,-0.19531 -0.295418,-0.0686 -0.590643,-0.14217 -0.886719,-0.21875 -0.295369,-0.0764 -0.588392,-0.15536 -0.878906,-0.23829 -0.291334,-0.0832 -0.580255,-0.17142 -0.869141,-0.26171 -0.28872,-0.0902 -0.576043,-0.18232 -0.861328,-0.2793 -0.284844,-0.0968 -0.568574,-0.19867 -0.851562,-0.30273 -0.280581,-0.10319 -0.562588,-0.21094 -0.84375,-0.32227 -0.283586,-0.11228 -0.559616,-0.22418 -0.832032,-0.33984 -0.273173,-0.11599 -0.546279,-0.23611 -0.822265,-0.36133 -0.274499,-0.12456 -0.543512,-0.25176 -0.810547,-0.38086 -0.266945,-0.12906 -0.533113,-0.26286 -0.800781,-0.40039 -0.267808,-0.13759 -0.53355,-0.27469 -0.792969,-0.41602 -0.260926,-0.14215 -0.519037,-0.28858 -0.777344,-0.4375 -0.255969,-0.14757 -0.509882,-0.29931 -0.765625,-0.45508 -0.253826,-0.1546 -0.506105,-0.31219 -0.755859,-0.47265 -0.251588,-0.16164 -0.500067,-0.32503 -0.744141,-0.49024 -0.246861,-0.16709 -0.490094,-0.33464 -0.730469,-0.50586 -0.239377,-0.17051 -0.478715,-0.34562 -0.71875,-0.52539 -0.23895,-0.17894 -0.473781,-0.35903 -0.705078,-0.54101 -0.234129,-0.18422 -0.46443,-0.36915 -0.691406,-0.55664 -0.228504,-0.18876 -0.454389,-0.38061 -0.677734,-0.57422 -0.221177,-0.19171 -0.440074,-0.38794 -0.66211,-0.58985 -0.21768,-0.19793 -0.434997,-0.40006 -0.65039,-0.60546 -0.217031,-0.20698 -0.427746,-0.41213 -0.634766,-0.61915 -0.211222,-0.21122 -0.418588,-0.42045 -0.621094,-0.63281 -0.201968,-0.21178 -0.400956,-0.42959 -0.603515,-0.65234 -0.20187,-0.222 -0.398078,-0.44089 -0.589844,-0.66211 -0.193568,-0.2233 -0.385452,-0.44921 -0.574219,-0.67774 -0.186633,-0.22593 -0.370398,-0.45664 -0.556641,-0.69335 -0.183532,-0.23327 -0.363809,-0.46651 -0.541015,-0.70313 -0.179736,-0.23998 -0.354883,-0.47939 -0.525391,-0.71875 -0.171232,-0.24039 -0.338772,-0.48363 -0.505859,-0.73047 -0.166546,-0.24606 -0.329996,-0.49278 -0.490235,-0.74219 -0.159291,-0.24792 -0.316706,-0.50175 -0.472656,-0.75781 -0.155769,-0.25575 -0.307516,-0.50968 -0.455078,-0.76562 -0.148925,-0.25832 -0.295352,-0.51643 -0.4375,-0.77735 -0.14133,-0.25942 -0.278402,-0.52513 -0.416016,-0.79297 -0.13752,-0.26765 -0.271342,-0.53385 -0.40039,-0.80078 -0.129101,-0.26702 -0.256313,-0.53606 -0.38086,-0.81054 -0.125236,-0.27601 -0.245335,-0.54909 -0.361328,-0.82227 -0.116977,-0.2755 -0.231149,-0.55258 -0.341796,-0.83203 -0.10979,-0.27728 -0.215693,-0.55926 -0.320313,-0.84375 -0.104058,-0.28297 -0.205875,-0.56665 -0.302734,-0.85156 -0.09693,-0.28513 -0.188997,-0.57241 -0.279297,-0.86133 -0.09028,-0.28886 -0.178613,-0.57801 -0.261719,-0.86914 -0.08327,-0.2917 -0.162214,-0.58288 -0.238281,-0.87696 -0.07632,-0.29505 -0.149943,-0.59227 -0.21875,-0.88867 -0.06864,-0.29566 -0.133308,-0.5933 -0.195313,-0.89453 -0.06192,-0.30085 -0.119685,-0.60304 -0.173828,-0.9043 -0.0543,-0.30214 -0.105466,-0.60531 -0.152344,-0.91015 -0.04675,-0.30402 -0.08951,-0.61011 -0.128906,-0.91797 -0.03927,-0.30685 -0.07381,-0.61424 -0.105469,-0.92383 -0.03168,-0.30977 -0.06014,-0.62044 -0.08398,-0.93164 -0.02404,-0.31369 -0.04463,-0.62567 -0.06055,-0.9375 -0.01601,-0.31336 -0.02708,-0.62931 -0.03516,-0.94531 -0.008,-0.31409 -0.01172,-0.62995 -0.01172,-0.94922 0,-0.31927 0.0037,-0.63513 0.01172,-0.94922 0.0081,-0.316 0.01915,-0.63195 0.03516,-0.94531 0.01593,-0.31182 0.03651,-0.62382 0.06055,-0.9375 0.02385,-0.31118 0.05231,-0.62188 0.08398,-0.93164 0.03166,-0.30959 0.0662,-0.61698 0.105469,-0.92383 0.0394,-0.30788 0.08215,-0.61396 0.128906,-0.91797 0.04687,-0.30483 0.09804,-0.608 0.152344,-0.91015 0.05414,-0.30123 0.111906,-0.60348 0.173828,-0.9043 0.062,-0.30122 0.126676,-0.59887 0.195313,-0.89453 0.06881,-0.29641 0.142425,-0.59362 0.21875,-0.88867 0.07606,-0.29407 0.155012,-0.58526 0.238281,-0.87696 0.08311,-0.29113 0.171433,-0.58027 0.261719,-0.86914 0.09029,-0.28891 0.182363,-0.57619 0.279297,-0.86133 0.09686,-0.28491 0.198676,-0.56859 0.302734,-0.85156 0.104621,-0.28449 0.210519,-0.56646 0.320313,-0.84375 0.110642,-0.27945 0.224815,-0.55652 0.341796,-0.83203 0.115992,-0.27318 0.236093,-0.54626 0.361328,-0.82227 0.124552,-0.27449 0.251752,-0.5435 0.38086,-0.81054 0.129041,-0.26691 0.262865,-0.53312 0.40039,-0.80078 0.13761,-0.26784 0.274696,-0.53357 0.416016,-0.79297 0.142157,-0.26093 0.288583,-0.51904 0.4375,-0.77735 0.147571,-0.25596 0.2993,-0.51181 0.455078,-0.76758 0.155941,-0.25604 0.313354,-0.50792 0.472656,-0.75585 0.160235,-0.2494 0.323704,-0.49617 0.490235,-0.74219 0.167095,-0.24686 0.334619,-0.49007 0.505859,-0.73047 0.170505,-0.23937 0.345631,-0.47874 0.525391,-0.71875 0.17719,-0.23659 0.35747,-0.46984 0.541015,-0.70313 0.186237,-0.23671 0.369996,-0.46742 0.556641,-0.69335 0.188752,-0.22851 0.380651,-0.45444 0.574219,-0.67774 0.191766,-0.22122 0.387967,-0.4401 0.589844,-0.66211 0.202548,-0.22275 0.401519,-0.44053 0.603515,-0.65234 0.202489,-0.21234 0.40987,-0.42159 0.621094,-0.63281 0.207029,-0.20703 0.417759,-0.4122 0.634766,-0.61915 0.215412,-0.20542 0.432691,-0.40751 0.65039,-0.60546 0.221992,-0.20187 0.440902,-0.39809 0.66211,-0.58985 0.223331,-0.19358 0.449245,-0.38547 0.677734,-0.57422 0.226976,-0.18749 0.45728,-0.37243 0.691406,-0.55664 0.2313,-0.18198 0.466102,-0.36205 0.705078,-0.54101 0.240009,-0.17975 0.479393,-0.35489 0.71875,-0.52539 0.240395,-0.17124 0.483608,-0.33877 0.730469,-0.50586 0.244074,-0.16521 0.491297,-0.32905 0.742188,-0.49024 0.273175,-0.17521 0.551828,-0.34947 0.833984,-0.51953 1.500673,-0.90444 2.746094,-2.92303 2.746094,-4.7207 v -3.72071 c 0,-1.63948 -1.053062,-2.75769 -2.423828,-2.8125 z"
         sodipodi:nodetypes="cssscccsssssssssssssssssssssssssssscssssssscsscscssscsssssssssssssssssssssssssssssssssssssssssssssssssssscscsscscsssccssssscssssssssssssssssssssssssssssssssssssssssssssssssssssssssssssssssssssssssssssssssssssssssssssccc"
         inkscape:path-effect="#path-effect1085;#path-effect1089"
         inkscape:original-d="m 87.634961,105.90516 c -16.782803,6.86466 -28.634945,23.36686 -28.634945,42.59482 0,25.36973 20.63004,45.99978 45.999774,45.99978 25.36975,0 46.0003,-20.63005 46.0003,-45.99978 0,-19.22788 -11.85211,-35.7301 -28.63495,-42.59482 v 8.81807 c 1.12617,0.59344 2.10591,1.15512 3.08302,1.78232 0.25704,0.16514 0.51201,0.33325 0.76481,0.50436 0.25279,0.17111 0.50344,0.34496 0.75189,0.52193 0.24845,0.17698 0.49446,0.35677 0.73846,0.53951 0.244,0.18273 0.48608,0.36867 0.72553,0.55707 0.23946,0.1884 0.47627,0.37965 0.71107,0.57361 0.2348,0.19396 0.46758,0.39021 0.69763,0.58962 0.23005,0.19942 0.45745,0.40191 0.68265,0.60669 0.2252,0.20477 0.44794,0.41215 0.66817,0.62218 0.22025,0.21003 0.43801,0.4225 0.65319,0.63769 0.2152,0.21519 0.42817,0.43294 0.63821,0.65319 0.21003,0.22024 0.41741,0.44297 0.62218,0.66817 0.20478,0.2252 0.40675,0.45312 0.60617,0.68317 0.19942,0.23005 0.39618,0.46231 0.59014,0.69711 0.19396,0.2348 0.38521,0.47213 0.57361,0.71159 0.1884,0.23945 0.37382,0.48102 0.55656,0.72502 0.18273,0.244 0.36252,0.49052 0.5395,0.73897 0.17697,0.24845 0.35134,0.4991 0.52245,0.75189 0.17111,0.25279 0.33921,0.50726 0.50436,0.7643 0.16514,0.25703 0.3272,0.51654 0.48627,0.77773 0.15908,0.26118 0.31528,0.52439 0.46819,0.78961 0.15291,0.26523 0.30243,0.53234 0.44907,0.8015 0.14664,0.26917 0.2902,0.54038 0.43047,0.81339 0.14026,0.27301 0.27754,0.54801 0.41134,0.82476 0.1338,0.27674 0.26397,0.55522 0.39119,0.8356 0.12723,0.28039 0.25152,0.56254 0.37207,0.84646 0.12055,0.28392 0.23762,0.56944 0.3514,0.8568 0.11378,0.28735 0.22383,0.57644 0.33073,0.86713 0.1069,0.29069 0.21066,0.58303 0.31057,0.87695 0.0999,0.29392 0.19603,0.58971 0.28888,0.88677 0.0928,0.29705 0.18253,0.59547 0.2682,0.89555 0.0857,0.30008 0.1676,0.60132 0.24598,0.90434 0.0784,0.30301 0.15276,0.6078 0.22376,0.91364 0.071,0.30584 0.13854,0.61282 0.20205,0.92139 0.0635,0.30856 0.12339,0.61846 0.17932,0.92966 0.0559,0.31119 0.10782,0.62369 0.15606,0.93741 0.0482,0.31371 0.0929,0.62902 0.13333,0.94516 0.0404,0.31614 0.077,0.63342 0.10955,0.95188 0.0326,0.31846 0.0612,0.63791 0.0858,0.9586 0.0246,0.32068 0.045,0.64251 0.0615,0.96531 0.0165,0.3228 0.0289,0.6467 0.0372,0.97152 0.008,0.32482 0.0124,0.65046 0.0124,0.9772 0,0.32674 -0.004,0.65238 -0.0124,0.9772 -0.008,0.32482 -0.0207,0.64872 -0.0372,0.97152 -0.0165,0.3228 -0.0369,0.64463 -0.0615,0.96531 -0.0246,0.32069 -0.0532,0.64014 -0.0858,0.9586 -0.0326,0.31846 -0.0691,0.63574 -0.10955,0.95188 -0.0405,0.31614 -0.0851,0.63145 -0.13333,0.94516 -0.0482,0.31372 -0.10013,0.62622 -0.15606,0.93741 -0.0559,0.3112 -0.11581,0.6211 -0.17932,0.92966 -0.0635,0.30857 -0.13106,0.61555 -0.20205,0.92139 -0.071,0.30584 -0.14538,0.61063 -0.22376,0.91364 -0.0784,0.30302 -0.16032,0.60426 -0.24598,0.90434 -0.0857,0.30008 -0.17536,0.59902 -0.2682,0.89607 -0.0928,0.29705 -0.18895,0.59233 -0.28888,0.88625 -0.0999,0.29392 -0.20367,0.58626 -0.31057,0.87695 -0.1069,0.29069 -0.21695,0.57978 -0.33073,0.86713 -0.11378,0.28735 -0.23085,0.57288 -0.3514,0.8568 -0.12055,0.28391 -0.24484,0.56607 -0.37207,0.84646 -0.12722,0.28038 -0.25739,0.55886 -0.39119,0.8356 -0.1338,0.27675 -0.27108,0.55175 -0.41134,0.82476 -0.14027,0.27301 -0.28383,0.54422 -0.43047,0.81339 -0.14664,0.26916 -0.29616,0.53627 -0.44907,0.8015 -0.15291,0.26522 -0.30911,0.52843 -0.46819,0.78961 -0.15907,0.26119 -0.32113,0.5207 -0.48627,0.77773 -0.16515,0.25704 -0.33325,0.51202 -0.50436,0.76482 -0.17111,0.25278 -0.34548,0.50344 -0.52245,0.75189 -0.17698,0.24844 -0.35677,0.49445 -0.5395,0.73845 -0.18274,0.244 -0.36816,0.48557 -0.55656,0.72502 -0.1884,0.23946 -0.37965,0.47679 -0.57361,0.71159 -0.19396,0.2348 -0.39072,0.46706 -0.59014,0.69711 -0.19942,0.23005 -0.40139,0.45797 -0.60617,0.68317 -0.20477,0.22519 -0.41215,0.44793 -0.62218,0.66817 -0.21004,0.22025 -0.42301,0.438 -0.63821,0.65319 -0.21518,0.21519 -0.43294,0.42765 -0.65319,0.63769 -0.22023,0.21003 -0.44297,0.41741 -0.66817,0.62218 -0.2252,0.20478 -0.4526,0.40728 -0.68265,0.60668 -0.23005,0.19942 -0.46283,0.39619 -0.69763,0.59015 -0.2348,0.19396 -0.47161,0.38469 -0.71107,0.57309 -0.23945,0.1884 -0.48153,0.37434 -0.72553,0.55707 -0.244,0.18274 -0.49001,0.36253 -0.73846,0.53951 -0.24845,0.17697 -0.4991,0.35082 -0.75189,0.52193 -0.2528,0.17111 -0.50777,0.33922 -0.76481,0.50436 -0.25704,0.16514 -0.51603,0.32771 -0.77722,0.48679 -0.26118,0.15908 -0.52439,0.31476 -0.78961,0.46767 -0.26523,0.15291 -0.53285,0.30295 -0.80202,0.44959 -0.26917,0.14664 -0.53986,0.29019 -0.81287,0.43046 -0.27301,0.14027 -0.54801,0.27703 -0.82476,0.41083 -0.27674,0.1338 -0.55523,0.26448 -0.8356,0.39171 -0.28039,0.12722 -0.56256,0.251 -0.84646,0.37155 -0.28392,0.12055 -0.56996,0.23763 -0.85732,0.3514 -0.28735,0.11378 -0.57644,0.22435 -0.86713,0.33125 -0.29069,0.1069 -0.58303,0.21013 -0.87695,0.31006 -0.29392,0.0999 -0.58919,0.19654 -0.88625,0.28938 -0.29705,0.0928 -0.59547,0.18203 -0.89555,0.26769 -0.30008,0.0857 -0.60184,0.1676 -0.90485,0.24598 -0.30302,0.0784 -0.60729,0.15327 -0.91313,0.22427 -0.30584,0.071 -0.61334,0.13854 -0.9219,0.20206 -0.30857,0.0635 -0.61847,0.12287 -0.92966,0.1788 -0.3112,0.0559 -0.6237,0.10833 -0.93741,0.15658 -0.31372,0.0482 -0.62851,0.0923 -0.94465,0.13281 -0.31614,0.0405 -0.63342,0.077 -0.95188,0.10955 -0.31846,0.0326 -0.63843,0.0612 -0.95911,0.0858 -0.32069,0.0246 -0.642,0.045 -0.9648,0.0615 -0.3228,0.0165 -0.6467,0.0289 -0.97152,0.0372 -0.32482,0.008 -0.65098,0.0129 -0.97772,0.0129 -0.32673,0 -0.65238,-0.005 -0.9772,-0.0129 -0.32482,-0.008 -0.64871,-0.0207 -0.97152,-0.0372 -0.3228,-0.0165 -0.64463,-0.0369 -0.96531,-0.0615 -0.32068,-0.0246 -0.64014,-0.0532 -0.9586,-0.0858 -0.31846,-0.0326 -0.63574,-0.0691 -0.95188,-0.10955 -0.316138,-0.0405 -0.630929,-0.0846 -0.944644,-0.13281 -0.313717,-0.0483 -0.626219,-0.10065 -0.937411,-0.15658 -0.311192,-0.0559 -0.621092,-0.11529 -0.929659,-0.1788 -0.308567,-0.0635 -0.616068,-0.13106 -0.921907,-0.20206 -0.30584,-0.071 -0.610111,-0.14589 -0.913123,-0.22427 -0.303012,-0.0784 -0.604772,-0.16032 -0.904854,-0.24598 -0.300083,-0.0857 -0.5985,-0.17484 -0.895553,-0.26769 -0.297053,-0.0928 -0.592846,-0.18946 -0.886768,-0.28938 -0.29392,-0.0999 -0.58626,-0.20316 -0.876949,-0.31006 -0.290687,-0.1069 -0.57926,-0.21747 -0.866613,-0.33125 -0.287355,-0.11377 -0.573394,-0.23085 -0.857312,-0.3514 -0.283919,-0.12055 -0.566079,-0.24433 -0.84646,-0.37155 -0.280383,-0.12723 -0.558863,-0.25791 -0.835608,-0.39171 -0.276745,-0.1338 -0.55175,-0.27056 -0.824756,-0.41083 -0.273006,-0.14027 -0.544221,-0.28382 -0.813387,-0.43046 -0.269166,-0.14664 -0.536277,-0.29668 -0.801502,-0.44959 -0.265223,-0.15291 -0.528434,-0.30859 -0.789615,-0.46767 -0.261183,-0.15908 -0.520175,-0.32165 -0.777214,-0.48679 -0.257039,-0.16514 -0.512017,-0.33325 -0.764811,-0.50436 -0.252794,-0.17111 -0.503446,-0.34496 -0.751892,-0.52193 -0.248448,-0.17698 -0.494974,-0.35677 -0.738973,-0.53951 -0.244001,-0.18273 -0.485569,-0.36867 -0.725021,-0.55707 -0.23945,-0.1884 -0.476782,-0.37913 -0.711584,-0.57309 -0.234802,-0.19396 -0.467064,-0.39073 -0.697115,-0.59015 -0.230051,-0.1994 -0.457447,-0.4019 -0.682646,-0.60668 -0.225199,-0.20477 -0.447931,-0.41215 -0.668176,-0.62218 -0.220245,-0.21004 -0.438,-0.4225 -0.65319,-0.63769 -0.215191,-0.21519 -0.428169,-0.43294 -0.638204,-0.65319 -0.210035,-0.22024 -0.417408,-0.44298 -0.622184,-0.66817 -0.204778,-0.2252 -0.406746,-0.45312 -0.606165,-0.68317 -0.199419,-0.23005 -0.396185,-0.46231 -0.590145,-0.69711 -0.19396,-0.2348 -0.385209,-0.47213 -0.573608,-0.71159 -0.188399,-0.23945 -0.373819,-0.48102 -0.556555,-0.72502 -0.182738,-0.244 -0.363045,-0.49001 -0.540019,-0.73845 -0.176974,-0.24845 -0.350822,-0.49911 -0.521932,-0.75189 -0.17111,-0.2528 -0.339218,-0.50778 -0.504362,-0.76482 -0.165144,-0.25703 -0.327198,-0.51654 -0.486275,-0.77773 -0.159077,-0.26118 -0.31528,-0.52439 -0.468189,-0.78961 -0.152909,-0.26523 -0.302428,-0.53234 -0.449068,-0.8015 -0.14664,-0.26917 -0.290195,-0.54038 -0.430465,-0.81339 -0.140268,-0.27301 -0.277546,-0.54801 -0.411344,-0.82476 -0.133798,-0.27674 -0.264483,-0.55522 -0.391707,-0.8356 -0.127225,-0.28039 -0.251003,-0.56255 -0.371554,-0.84646 -0.120551,-0.28392 -0.237624,-0.56945 -0.3514,-0.8568 -0.113775,-0.28735 -0.224347,-0.57644 -0.331246,-0.86713 -0.106898,-0.29069 -0.210137,-0.58303 -0.310058,-0.87695 -0.09992,-0.29392 -0.196546,-0.5892 -0.289388,-0.88625 -0.09284,-0.29705 -0.182022,-0.59599 -0.267684,-0.89607 -0.08566,-0.30008 -0.167599,-0.60132 -0.24598,-0.90434 -0.07838,-0.30301 -0.153278,-0.6078 -0.224276,-0.91364 -0.071,-0.30584 -0.138023,-0.61282 -0.201538,-0.92139 -0.06351,-0.30856 -0.123388,-0.61846 -0.179317,-0.92966 -0.05593,-0.31119 -0.10782,-0.62369 -0.156063,-0.93741 -0.04824,-0.31371 -0.09287,-0.62902 -0.133325,-0.94516 -0.04046,-0.31614 -0.07699,-0.63342 -0.109554,-0.95188 -0.03257,-0.31846 -0.06121,-0.63791 -0.08578,-0.9586 -0.02458,-0.32068 -0.04501,-0.64251 -0.06149,-0.96531 -0.01649,-0.3228 -0.02891,-0.6467 -0.03721,-0.97152 -0.0083,-0.32482 -0.0124,-0.65046 -0.0124,-0.9772 0,-0.32674 0.0041,-0.65238 0.0124,-0.9772 0.0083,-0.32482 0.02072,-0.64872 0.03721,-0.97152 0.01649,-0.3228 0.03692,-0.64463 0.06149,-0.96531 0.02458,-0.32069 0.05322,-0.64014 0.08578,-0.9586 0.03257,-0.31846 0.0691,-0.63574 0.109554,-0.95188 0.04046,-0.31614 0.08508,-0.63145 0.133325,-0.94516 0.04824,-0.31372 0.100134,-0.62622 0.156063,-0.93741 0.05593,-0.3112 0.115803,-0.6211 0.179317,-0.92966 0.06351,-0.30857 0.13054,-0.61555 0.201538,-0.92139 0.071,-0.30584 0.145895,-0.61063 0.224276,-0.91364 0.07838,-0.30302 0.160318,-0.60426 0.24598,-0.90434 0.08566,-0.30008 0.174841,-0.5985 0.267684,-0.89555 0.09284,-0.29706 0.189467,-0.59285 0.289388,-0.88677 0.09992,-0.29392 0.20316,-0.58626 0.310058,-0.87695 0.106899,-0.29069 0.217471,-0.57978 0.331246,-0.86713 0.113776,-0.28736 0.230849,-0.57288 0.3514,-0.8568 0.120551,-0.28392 0.244329,-0.56607 0.371554,-0.84646 0.127224,-0.28038 0.257909,-0.55886 0.391707,-0.8356 0.133798,-0.27675 0.271076,-0.55175 0.411344,-0.82476 0.14027,-0.27301 0.283825,-0.54422 0.430465,-0.81339 0.14664,-0.26916 0.296159,-0.53627 0.449068,-0.8015 0.152909,-0.26522 0.309112,-0.52843 0.468189,-0.78961 0.159077,-0.26119 0.321131,-0.5207 0.486275,-0.77773 0.165144,-0.25704 0.333252,-0.51151 0.504362,-0.7643 0.17111,-0.25279 0.344958,-0.50344 0.521932,-0.75189 0.176974,-0.24845 0.357281,-0.49497 0.540019,-0.73897 0.182736,-0.244 0.368156,-0.48557 0.556555,-0.72502 0.188399,-0.23946 0.379648,-0.47679 0.573608,-0.71159 0.19396,-0.2348 0.390726,-0.46706 0.590145,-0.69711 0.199419,-0.23005 0.401387,-0.45797 0.606165,-0.68317 0.204776,-0.2252 0.412149,-0.44793 0.622184,-0.66817 0.210035,-0.22025 0.423013,-0.438 0.638204,-0.65319 0.21519,-0.21519 0.432945,-0.42766 0.65319,-0.63769 0.220245,-0.21003 0.442977,-0.41741 0.668176,-0.62218 0.225199,-0.20478 0.452595,-0.40727 0.682646,-0.60669 0.230051,-0.19941 0.462313,-0.39566 0.697115,-0.58962 0.234802,-0.19396 0.472134,-0.38521 0.711584,-0.57361 0.239452,-0.1884 0.48102,-0.37434 0.725021,-0.55707 0.243999,-0.18274 0.490525,-0.36253 0.738973,-0.53951 0.248446,-0.17697 0.499098,-0.35082 0.751892,-0.52193 0.252794,-0.17111 0.507772,-0.33922 0.764811,-0.50436 0.998146,-0.64019 2.10149,-1.27151 3.083016,-1.78232 z" /><path
         style="fill:#00a2e8;fill-opacity:1;stroke-width:0.264583"
         id="rect1075"
         width="10.847917"
         height="44.185417"
         x="99.576096"
         y="98.954163"
         inkscape:path-effect="#path-effect1087"
         d="m 101.69276,98.954163 h 6.61459 a 2.1166667,2.1166667 45 0 1 2.11666,2.116667 v 39.95208 a 2.1166667,2.1166667 135 0 1 -2.11666,2.11667 h -6.61459 a 2.1166667,2.1166667 45 0 1 -2.116664,-2.11667 v -39.95208 a 2.1166667,2.1166667 135 0 1 2.116664,-2.116667 z"
         sodipodi:type="rect" /></g></g></svg>
